<?xml version="1.0" encoding="UTF-8"?>
<svg width="27px" height="26px" viewBox="0 0 27 26" version="1.1" xmlns="http://www.w3.org/2000/svg" xmlns:xlink="http://www.w3.org/1999/xlink">
    <!-- Generator: Sketch 55.2 (78181) - https://sketchapp.com -->
    <title>Album</title>
    <desc>Created with Sketch.</desc>
    <g id="FUNPLAY" stroke="none" stroke-width="1" fill="none" fill-rule="evenodd">
        <g id="02-1-all-tracks-" transform="translate(-41.000000, -618.000000)" fill="#382E2E" fill-rule="nonzero">
            <g id="Group-5" transform="translate(-1.000000, 611.000000)">
                <path d="M45.0085926,30.1111111 L65.2847407,30.1111111 L65.2847407,9.88888889 L45.0085926,9.88888889 L45.0085926,30.1111111 Z M42.112,7 L68.1813333,7 L68.1813333,33 L42.112,33 L42.112,7 Z M55.1466667,28.6666667 C59.9458984,28.6666667 63.8364444,24.7864678 63.8364444,20 C63.8364444,15.2135322 59.9458984,11.3333333 55.1466667,11.3333333 C50.3474349,11.3333333 46.4568889,15.2135322 46.4568889,20 C46.4568889,24.7864678 50.3474349,28.6666667 55.1466667,28.6666667 Z M55.1466667,25.7777778 C51.9471788,25.7777778 49.3534815,23.1909786 49.3534815,20 C49.3534815,16.8090214 51.9471788,14.2222222 55.1466667,14.2222222 C58.3461545,14.2222222 60.9398519,16.8090214 60.9398519,20 C60.9398519,23.1909786 58.3461545,25.7777778 55.1466667,25.7777778 Z M55.1466667,22.1666667 C56.3464746,22.1666667 57.3191111,21.196617 57.3191111,20 C57.3191111,18.803383 56.3464746,17.8333333 55.1466667,17.8333333 C53.9468587,17.8333333 52.9742222,18.803383 52.9742222,20 C52.9742222,21.196617 53.9468587,22.1666667 55.1466667,22.1666667 Z" id="Album"></path>
            </g>
        </g>
    </g>
</svg>