<?xml version="1.0" encoding="UTF-8"?>
<svg width="24px" height="21px" viewBox="0 0 24 21" version="1.1" xmlns="http://www.w3.org/2000/svg" xmlns:xlink="http://www.w3.org/1999/xlink">
    <!-- Generator: Sketch 55.2 (78181) - https://sketchapp.com -->
    <title>Download</title>
    <desc>Created with Sketch.</desc>
    <g id="FUNPLAY" stroke="none" stroke-width="1" fill="none" fill-rule="evenodd">
        <g id="03-1" transform="translate(-257.000000, -316.000000)" fill="#FFFFFF" fill-rule="nonzero">
            <path d="M267.804765,326.422918 L267.804765,317.289825 C267.804765,316.577474 268.393262,316 269.119211,316 C269.845159,316 270.433656,316.577474 270.433656,317.289825 L270.433656,326.188963 L271.78836,324.859634 C272.301682,324.355926 273.133943,324.355926 273.647266,324.859634 C274.160589,325.363342 274.160589,326.180014 273.647266,326.683722 L269.929453,330.331897 C269.672792,330.58375 269.336396,330.709677 269,330.709677 C268.663604,330.709677 268.327208,330.58375 268.070547,330.331897 L264.352734,326.683722 C263.839411,326.180014 263.839411,325.363342 264.352734,324.859634 C264.866057,324.355926 265.698318,324.355926 266.21164,324.859634 L267.804765,326.422918 Z M257,331.870968 C257,331.229605 257.555784,330.709677 258.241379,330.709677 C258.926974,330.709677 259.482759,331.229605 259.482759,331.870968 L259.482759,333.419355 C259.482759,334.060718 260.038543,334.580645 260.724138,334.580645 L277.275862,334.580645 C277.961457,334.580645 278.517241,334.060718 278.517241,333.419355 L278.517241,331.870968 C278.517241,331.229605 279.073026,330.709677 279.758621,330.709677 C280.444216,330.709677 281,331.229605 281,331.870968 L281,333.419355 C281,335.343444 279.332647,336.903226 277.275862,336.903226 L260.724138,336.903226 C258.667353,336.903226 257,335.343444 257,333.419355 L257,331.870968 Z" id="Download"></path>
        </g>
    </g>
</svg>