<?xml version="1.0" encoding="UTF-8"?>
<svg width="36px" height="22px" viewBox="0 0 36 22" version="1.1" xmlns="http://www.w3.org/2000/svg" xmlns:xlink="http://www.w3.org/1999/xlink">
    <!-- Generator: Sketch 55.2 (78181) - https://sketchapp.com -->
    <title>Next</title>
    <desc>Created with Sketch.</desc>
    <g id="FUNPLAY" stroke="none" stroke-width="1" fill="none" fill-rule="evenodd">
        <g id="03-2" transform="translate(-256.000000, -551.000000)" fill="#FFFFFF">
            <path d="M273.804228,551.181952 C273.595336,551.062789 273.357847,551 273.116024,551 C272.36159,551 271.75,551.598197 271.75,552.33611 L271.75,558.994745 L258.054228,551.181952 C257.845336,551.062789 257.607847,551 257.366024,551 C256.61159,551 256,551.598197 256,552.33611 L256,571.038672 C256,571.2752 256.064195,571.507488 256.186025,571.711806 C256.56611,572.34923 257.402533,572.564592 258.054228,572.192831 L271.75,564.380037 L271.75,571.038672 C271.75,571.2752 271.814195,571.507488 271.936025,571.711806 C272.31611,572.34923 273.152533,572.564592 273.804228,572.192831 L287.5,564.380037 L287.5,570.125 C287.5,571.367641 288.507359,572.375 289.75,572.375 C290.992641,572.375 292,571.367641 292,570.125 L292,553.25 C292,552.007359 290.992641,551 289.75,551 C288.507359,551 287.5,552.007359 287.5,553.25 L287.5,558.994745 L273.804228,551.181952 Z" id="Next"></path>
        </g>
    </g>
</svg>