<?xml version="1.0" encoding="UTF-8"?>
<svg width="37px" height="22px" viewBox="0 0 37 22" version="1.1" xmlns="http://www.w3.org/2000/svg" xmlns:xlink="http://www.w3.org/1999/xlink">
    <!-- Generator: Sketch 55.2 (78181) - https://sketchapp.com -->
    <title>Previous</title>
    <desc>Created with Sketch.</desc>
    <g id="FUNPLAY" stroke="none" stroke-width="1" fill="none" fill-rule="evenodd">
        <g id="03-2" transform="translate(-83.000000, -551.000000)" fill="#FFFFFF">
            <path d="M100.824011,551.182154 C100.614887,551.062859 100.377134,551 100.135042,551 C99.3797696,551 98.7675004,551.598862 98.7675004,552.337595 L98.7675004,559.003628 L85.0565103,551.182154 C84.8473865,551.062859 84.6096335,551 84.3675416,551 C83.6122692,551 83,551.598862 83,552.337595 L83,571.060938 C83,571.297728 83.0642659,571.530275 83.1862321,571.734819 C83.566739,572.372952 84.404091,572.588553 85.0565103,572.216379 L98.7675004,564.394904 L98.7675004,571.060938 C98.7675004,571.297728 98.8317664,571.530275 98.9537325,571.734819 C99.3342394,572.372952 100.171591,572.588553 100.824011,572.216379 L114.535001,564.394904 L114.535001,570.14625 C114.535001,571.390272 115.543479,572.398751 116.787501,572.398751 C118.031522,572.398751 119.040001,571.390272 119.040001,570.14625 L119.040001,553.2525 C119.040001,552.008479 118.031522,551 116.787501,551 C115.543479,551 114.535001,552.008479 114.535001,553.2525 L114.535001,559.003628 L100.824011,551.182154 Z" id="Previous" transform="translate(101.020000, 561.699375) scale(-1, 1) translate(-101.020000, -561.699375) "></path>
        </g>
    </g>
</svg>