<?xml version="1.0" encoding="UTF-8"?>
<svg width="27px" height="26px" viewBox="0 0 27 26" version="1.1" xmlns="http://www.w3.org/2000/svg" xmlns:xlink="http://www.w3.org/1999/xlink">
    <!-- Generator: Sketch 55.2 (78181) - https://sketchapp.com -->
    <title>Queue</title>
    <desc>Created with Sketch.</desc>
    <g id="FUNPLAY" stroke="none" stroke-width="1" fill="none" fill-rule="evenodd">
        <g id="02-1-all-tracks-" transform="translate(-130.000000, -617.000000)" fill="#FFFFFF">
            <g id="Group-5" transform="translate(-1.000000, 611.000000)">
                <g id="Group-3" transform="translate(89.237333, 6.000000)">
                    <path d="M55.3330282,5.48846949 L66.7280431,5.48846949 C67.5306731,5.48846949 68.1813333,6.1373992 68.1813333,6.93789458 C68.1813333,7.73838995 67.5306731,8.38731967 66.7280431,8.38731967 L53.90413,8.38731967 L55.3899852,7.52303726 C55.5631268,7.4223254 55.707192,7.27864334 55.8081724,7.10596222 C56.1313695,6.55328055 55.9441407,5.84393738 55.3899852,5.52159989 L55.3330282,5.48846949 Z M44.9286897,24.3309957 C44.9286897,23.5305003 45.5793499,22.8815706 46.38198,22.8815706 L66.7280431,22.8815706 C67.5306731,22.8815706 68.1813333,23.5305003 68.1813333,24.3309957 C68.1813333,25.131491 67.5306731,25.7804208 66.7280431,25.7804208 L46.38198,25.7804208 C45.5793499,25.7804208 44.9286897,25.131491 44.9286897,24.3309957 Z M44.9286897,15.6344451 C44.9286897,14.8339498 45.5793499,14.18502 46.38198,14.18502 L66.7280431,14.18502 C67.5306731,14.18502 68.1813333,14.8339498 68.1813333,15.6344451 C68.1813333,16.4349405 67.5306731,17.0838702 66.7280431,17.0838702 L46.38198,17.0838702 C45.5793499,17.0838702 44.9286897,16.4349405 44.9286897,15.6344451 Z M53.152724,7.22671132 L43.3414798,12.9336507 C42.9514325,13.1605309 42.4508235,13.0290987 42.2233384,12.6400887 C42.1504212,12.5153971 42.112,12.3736351 42.112,12.2292859 L42.112,0.815407091 C42.112,0.36507019 42.4780437,-2.30926389e-14 42.9295815,-2.30926389e-14 C43.0743156,-2.30926389e-14 43.2164556,0.0383190611 43.3414798,0.111042286 L53.152724,5.81798171 C53.5427713,6.04486183 53.674554,6.54413938 53.4470688,6.93314932 C53.3759928,7.05469247 53.2745913,7.15582438 53.152724,7.22671132 Z" id="Queue"></path>
                </g>
            </g>
        </g>
    </g>
</svg>