<?xml version="1.0" encoding="UTF-8"?>
<svg width="24px" height="22px" viewBox="0 0 24 22" version="1.1" xmlns="http://www.w3.org/2000/svg" xmlns:xlink="http://www.w3.org/1999/xlink">
    <!-- Generator: Sketch 55.2 (78181) - https://sketchapp.com -->
    <title>Repeat One</title>
    <desc>Created with Sketch.</desc>
    <g id="FUNPLAY" stroke="none" stroke-width="1" fill="none" fill-rule="evenodd">
        <g id="03-2" transform="translate(-325.000000, -549.000000)" fill="#FFFFFF" fill-rule="nonzero">
            <g id="Repeat-One-2" transform="translate(325.000000, 549.000000)">
                <path d="M5.76,17.3140655 L12.8020377,17.3140655 C18.7687614,17.3140655 21.44,15.1645877 21.44,10.6666667 L24,10.6666667 C24,16.8097219 20.0592637,19.9807322 12.8020377,19.9807322 L5.76,19.9807322 L5.76,22 L5.68434189e-14,18.6666667 L5.76,15.3333333 L5.76,17.3140655 Z M12.0932271,6.68593449 L18.24,6.68593449 L18.24,8.66666667 L24,5.33333333 L18.24,2 L18.24,4.01926782 L12.2535751,4.01926782 C12.3060446,4.33839957 12.3333333,4.66601297 12.3333333,5 C12.3333333,5.58533745 12.2495154,6.15109816 12.0932271,6.68593449 Z M3.19603134,10.1154199 C2.76750529,11.0084994 2.56,12.0797013 2.56,13.3333333 L0,13.3333333 C0,11.3018094 0.430975342,9.59532068 1.2703489,8.22106316 C1.75996207,8.98905243 2.41951552,9.63816397 3.19603134,10.1154199 Z M6.33333333,10 C3.57190958,10 1.33333333,7.76142375 1.33333333,5 C1.33333333,2.23857625 3.57190958,0 6.33333333,0 C9.09475708,0 11.3333333,2.23857625 11.3333333,5 C11.3333333,7.76142375 9.09475708,10 6.33333333,10 Z M6.34797822,7.13818182 C6.34797822,7.33212218 6.39282626,7.47878738 6.48252367,7.57818182 C6.57222109,7.67757625 6.69100778,7.72727273 6.83888731,7.72727273 C7.17101018,7.72727273 7.33706913,7.4836388 7.33706913,6.99636364 L7.33706913,2.83272727 C7.33706913,2.65818095 7.29828164,2.52121262 7.22070549,2.42181818 C7.14312935,2.32242375 7.04010007,2.27272727 6.91161458,2.27272727 C6.79767462,2.27272727 6.72009964,2.29454524 6.67888731,2.33818182 C6.63767498,2.3818184 6.54919102,2.49818087 6.41343277,2.68727273 C6.27767451,2.87636458 6.12191849,3.04727196 5.94616004,3.2 C5.77040158,3.35272804 5.53585847,3.49818113 5.24252367,3.63636364 C5.04615906,3.72848531 4.90919073,3.80363607 4.83161458,3.86181818 C4.75403844,3.92000029 4.71525095,4.01090847 4.71525095,4.13454545 C4.71525095,4.24121265 4.75464449,4.33515111 4.83343277,4.41636364 C4.91222104,4.49757616 5.00252317,4.53818182 5.10434186,4.53818182 C5.31767626,4.53818182 5.73221757,4.30182055 6.34797822,3.82909091 L6.34797822,7.13818182 Z" id="Repeat-One"></path>
            </g>
        </g>
    </g>
</svg>