<?xml version="1.0" encoding="UTF-8"?>
<svg width="24px" height="20px" viewBox="0 0 24 20" version="1.1" xmlns="http://www.w3.org/2000/svg" xmlns:xlink="http://www.w3.org/1999/xlink">
    <!-- Generator: Sketch 55.2 (78181) - https://sketchapp.com -->
    <title>Repeat</title>
    <desc>Created with Sketch.</desc>
    <g id="FUNPLAY" stroke="none" stroke-width="1" fill="none" fill-rule="evenodd">
        <g id="03-2" transform="translate(-26.000000, -551.000000)" fill="#FFFFFF" fill-rule="nonzero">
            <path d="M31.76,566.314066 L38.8020377,566.314066 C44.7687614,566.314066 47.44,564.164588 47.44,559.666667 L50,559.666667 C50,565.809722 46.0592637,568.980732 38.8020377,568.980732 L31.76,568.980732 L31.76,571 L26,567.666667 L31.76,564.333333 L31.76,566.314066 Z M44.24,555.685934 L37.1979623,555.685934 C31.2312386,555.685934 28.56,557.835412 28.56,562.333333 L26,562.333333 C26,556.190278 29.9407363,553.019268 37.1979623,553.019268 L44.24,553.019268 L44.24,551 L50,554.333333 L44.24,557.666667 L44.24,555.685934 Z" id="Repeat"></path>
        </g>
    </g>
</svg>