<?xml version="1.0" encoding="UTF-8"?>
<svg width="24px" height="24px" viewBox="0 0 24 24" version="1.1" xmlns="http://www.w3.org/2000/svg" xmlns:xlink="http://www.w3.org/1999/xlink">
    <!-- Generator: Sketch 55.2 (78181) - https://sketchapp.com -->
    <title>Search</title>
    <desc>Created with Sketch.</desc>
    <g id="FUNPLAY" stroke="none" stroke-width="1" fill="none" fill-rule="evenodd">
        <g id="03-2" transform="translate(-341.000000, -30.000000)" fill="#FFFFFF" fill-rule="nonzero">
            <g id="Search" transform="translate(341.000000, 30.000000)">
                <path d="M23.6010516,21.6696545 C24.1329828,22.2027533 24.1329828,23.0670771 23.6010516,23.6001759 C23.0691204,24.1332747 22.2066894,24.1332747 21.6747582,23.6001759 L15.379322,17.2909217 C13.7650983,18.5613769 11.7370876,19.3178521 9.53466566,19.3178521 C4.26881522,19.3178521 0,14.9934036 0,9.65892607 C0,4.3244485 4.26881522,0 9.53466566,0 C14.8005161,0 19.0693313,4.3244485 19.0693313,9.65892607 C19.0693313,11.7723207 18.3993159,13.7271855 17.2627316,15.3174223 L23.6010516,21.6696545 Z M9.53466566,16.558159 C13.2959874,16.558159 16.3451411,13.4692672 16.3451411,9.65892607 C16.3451411,5.84858495 13.2959874,2.75969316 9.53466566,2.75969316 C5.77334392,2.75969316 2.72419019,5.84858495 2.72419019,9.65892607 C2.72419019,13.4692672 5.77334392,16.558159 9.53466566,16.558159 Z"></path>
            </g>
        </g>
    </g>
</svg>