<?xml version="1.0" encoding="UTF-8"?>
<svg width="27px" height="19px" viewBox="0 0 27 19" version="1.1" xmlns="http://www.w3.org/2000/svg" xmlns:xlink="http://www.w3.org/1999/xlink">
    <!-- Generator: Sketch 55.2 (78181) - https://sketchapp.com -->
    <title>Shuffle</title>
    <desc>Created with Sketch.</desc>
    <g id="FUNPLAY" stroke="none" stroke-width="1" fill="none" fill-rule="evenodd">
        <g id="02-2-精選all-tracks-" transform="translate(-219.000000, -236.000000)" fill="#FFFFFF" fill-rule="nonzero">
            <g id="Group-5" transform="translate(83.000000, 223.000000)">
                <g id="Group-4" transform="translate(59.666000, 13.000000)">
                    <path d="M97.1976364,2.2173913 L97.1976364,0 L103.334,3.69565217 L97.1976364,7.39130435 L97.1976364,5.17391304 L96.0425561,5.17391304 C92.5982506,5.17391304 89.7854742,7.01621699 87.507013,10.8044641 C85.1772423,14.9013286 81.8131275,17 77.5612727,17 L76.334,17 L76.334,14.0434783 L77.5612727,14.0434783 C81.0099527,14.0434783 83.6137524,12.4191223 85.5006971,9.10169173 C88.2461621,4.53611795 91.7863269,2.2173913 96.0425561,2.2173913 L97.1976364,2.2173913 Z M97.2128058,13.75 L97.2128058,11.5 L103.334,15.25 L97.2128058,19 L97.2128058,16.75 L96.0605811,16.75 C92.6878617,16.75 89.7658941,15.2652614 87.334,12.3323467 C87.4056404,12.2111789 87.4763545,12.0881801 87.5461383,11.9633532 C87.9744135,11.2390263 88.4216136,10.5848097 88.8883875,10 C90.8987526,12.5187377 93.2722053,13.75 96.0605811,13.75 L97.2128058,13.75 L97.2128058,13.75 Z M86.334,6.5004151 C86.0832173,6.8789542 85.8383382,7.27506802 85.5994136,7.68870829 C85.3430489,8.1579358 85.073593,8.5949745 84.7907317,9 C82.9692025,6.39177532 80.5917624,5.11111111 77.5744893,5.11111111 L76.334,5.11111111 L76.334,2 L77.5744893,2 C81.1402407,2 84.0882899,3.52026854 86.334,6.5004151 L86.334,6.5004151 Z" id="Shuffle"></path>
                </g>
            </g>
        </g>
    </g>
</svg>